<?xml version="1.0" encoding="UTF-8" standalone="no"?>
<!-- Generator: Adobe Illustrator 19.0.0, SVG Export Plug-In . SVG Version: 6.00 Build 0)  -->

<svg
   xmlns:dc="http://purl.org/dc/elements/1.1/"
   xmlns:cc="http://creativecommons.org/ns#"
   xmlns:rdf="http://www.w3.org/1999/02/22-rdf-syntax-ns#"
   xmlns:svg="http://www.w3.org/2000/svg"
   xmlns="http://www.w3.org/2000/svg"
   xmlns:sodipodi="http://sodipodi.sourceforge.net/DTD/sodipodi-0.dtd"
   xmlns:inkscape="http://www.inkscape.org/namespaces/inkscape"
   version="1.1"
   id="Layer_1"
   x="0px"
   y="0px"
   viewBox="0 0 512 512"
   style="enable-background:new 0 0 512 512;"
   xml:space="preserve"
   sodipodi:docname="camera.svg"
   inkscape:version="0.92.4 (5da689c313, 2019-01-14)"><metadata
   id="metadata2625"><rdf:RDF><cc:Work
       rdf:about=""><dc:format>image/svg+xml</dc:format><dc:type
         rdf:resource="http://purl.org/dc/dcmitype/StillImage" /></cc:Work></rdf:RDF></metadata><defs
   id="defs2623" /><sodipodi:namedview
   pagecolor="#ffffff"
   bordercolor="#666666"
   borderopacity="1"
   objecttolerance="10"
   gridtolerance="10"
   guidetolerance="10"
   inkscape:pageopacity="0"
   inkscape:pageshadow="2"
   inkscape:window-width="1920"
   inkscape:window-height="1001"
   id="namedview2621"
   showgrid="false"
   inkscape:zoom="0.35920715"
   inkscape:cx="145.82707"
   inkscape:cy="-1.7581611"
   inkscape:window-x="-9"
   inkscape:window-y="-9"
   inkscape:window-maximized="1"
   inkscape:current-layer="Layer_1" />
<g
   id="g2588"
   style="fill:#ffffff">
	<g
   id="g2586"
   style="fill:#ffffff">
		<g
   id="g2584"
   style="fill:#ffffff">
			<circle
   cx="256"
   cy="277.333"
   r="106.667"
   id="circle2580"
   style="fill:#ffffff" />
			<path
   d="M469.333,106.667h-67.656c-8.552,0-16.583-3.333-22.635-9.375l-39-39c-10.073-10.073-23.469-15.625-37.719-15.625     h-92.646c-14.25,0-27.646,5.552-37.719,15.625l-39,39c-6.052,6.042-14.083,9.375-22.635,9.375H42.667     C19.135,106.667,0,125.802,0,149.333v277.333c0,23.531,19.135,42.667,42.667,42.667h426.667     c23.531,0,42.667-19.135,42.667-42.667V149.333C512,125.802,492.865,106.667,469.333,106.667z M256,405.333     c-70.583,0-128-57.417-128-128s57.417-128,128-128s128,57.417,128,128S326.583,405.333,256,405.333z M426.667,213.333     c-11.76,0-21.333-9.573-21.333-21.333s9.573-21.333,21.333-21.333S448,180.24,448,192S438.427,213.333,426.667,213.333z"
   id="path2582"
   style="fill:#ffffff" />
		</g>
	</g>
</g>
<g
   id="g2590">
</g>
<g
   id="g2592">
</g>
<g
   id="g2594">
</g>
<g
   id="g2596">
</g>
<g
   id="g2598">
</g>
<g
   id="g2600">
</g>
<g
   id="g2602">
</g>
<g
   id="g2604">
</g>
<g
   id="g2606">
</g>
<g
   id="g2608">
</g>
<g
   id="g2610">
</g>
<g
   id="g2612">
</g>
<g
   id="g2614">
</g>
<g
   id="g2616">
</g>
<g
   id="g2618">
</g>
</svg>