<?xml version="1.0" encoding="UTF-8" standalone="no"?>
<svg
   xmlns:dc="http://purl.org/dc/elements/1.1/"
   xmlns:cc="http://creativecommons.org/ns#"
   xmlns:rdf="http://www.w3.org/1999/02/22-rdf-syntax-ns#"
   xmlns:svg="http://www.w3.org/2000/svg"
   xmlns="http://www.w3.org/2000/svg"
   xmlns:sodipodi="http://sodipodi.sourceforge.net/DTD/sodipodi-0.dtd"
   xmlns:inkscape="http://www.inkscape.org/namespaces/inkscape"
   width="24"
   height="24"
   viewBox="0 0 24 24"
   version="1.1"
   id="svg4"
   sodipodi:docname="gear.svg"
   inkscape:version="0.92.5 (2060ec1f9f, 2020-04-08)">
  <metadata
     id="metadata10">
    <rdf:RDF>
      <cc:Work
         rdf:about="">
        <dc:format>image/svg+xml</dc:format>
        <dc:type
           rdf:resource="http://purl.org/dc/dcmitype/StillImage" />
      </cc:Work>
    </rdf:RDF>
  </metadata>
  <defs
     id="defs8">
    <filter
       inkscape:collect="always"
       style="color-interpolation-filters:sRGB"
       id="filter834"
       x="-0.036"
       width="1.072"
       y="-0.036"
       height="1.072">
      <feGaussianBlur
         inkscape:collect="always"
         stdDeviation="0.36"
         id="feGaussianBlur836" />
    </filter>
  </defs>
  <sodipodi:namedview
     pagecolor="#ffffff"
     bordercolor="#666666"
     borderopacity="1"
     objecttolerance="10"
     gridtolerance="10"
     guidetolerance="10"
     inkscape:pageopacity="0"
     inkscape:pageshadow="2"
     inkscape:window-width="1920"
     inkscape:window-height="1001"
     id="namedview6"
     showgrid="false"
     inkscape:zoom="5.6568542"
     inkscape:cx="11.64958"
     inkscape:cy="-0.18062722"
     inkscape:window-x="-9"
     inkscape:window-y="-9"
     inkscape:window-maximized="1"
     inkscape:current-layer="svg4" />
  <path
     style="fill:#000000;fill-opacity:1;filter:url(#filter834)"
     id="path812"
     d="M 24,13.616 V 10.384 C 22.349,9.797 21.306,9.632 20.781,8.365 V 8.364 C 20.254,7.093 20.881,6.23 21.628,4.657 L 19.343,2.372 C 17.782,3.114 16.91,3.747 15.636,3.219 H 15.635 C 14.366,2.693 14.2,1.643 13.616,0 H 10.384 C 9.802,1.635 9.635,2.692 8.365,3.219 H 8.364 C 7.093,3.747 6.232,3.121 4.657,2.372 L 2.372,4.657 C 3.117,6.225 3.747,7.091 3.219,8.364 2.692,9.635 1.635,9.802 0,10.384 v 3.232 c 1.632,0.58 2.692,0.749 3.219,2.019 0.53,1.282 -0.114,2.166 -0.847,3.707 l 2.285,2.286 c 1.562,-0.743 2.434,-1.375 3.707,-0.847 h 10e-4 c 1.27,0.526 1.436,1.579 2.019,3.219 h 3.232 c 0.582,-1.636 0.75,-2.69 2.027,-3.222 h 10e-4 c 1.262,-0.524 2.12,0.101 3.698,0.851 l 2.285,-2.286 C 20.883,17.78 20.252,16.91 20.779,15.637 21.306,14.366 22.367,14.197 24,13.616 Z M 12,16 C 9.791,16 8,14.209 8,12 8,9.791 9.791,8 12,8 c 2.209,0 4,1.791 4,4 0,2.209 -1.791,4 -4,4 z"
     inkscape:connector-curvature="0"
     transform="matrix(1.0274451,0,0,1.0089599,-0.0949655,0.25494965)" />
  <path
     d="M24 13.616v-3.232c-1.651-.587-2.694-.752-3.219-2.019v-.001c-.527-1.271.1-2.134.847-3.707l-2.285-2.285c-1.561.742-2.433 1.375-3.707.847h-.001c-1.269-.526-1.435-1.576-2.019-3.219h-3.232c-.582 1.635-.749 2.692-2.019 3.219h-.001c-1.271.528-2.132-.098-3.707-.847l-2.285 2.285c.745 1.568 1.375 2.434.847 3.707-.527 1.271-1.584 1.438-3.219 2.02v3.232c1.632.58 2.692.749 3.219 2.019.53 1.282-.114 2.166-.847 3.707l2.285 2.286c1.562-.743 2.434-1.375 3.707-.847h.001c1.27.526 1.436 1.579 2.019 3.219h3.232c.582-1.636.75-2.69 2.027-3.222h.001c1.262-.524 2.12.101 3.698.851l2.285-2.286c-.744-1.563-1.375-2.433-.848-3.706.527-1.271 1.588-1.44 3.221-2.021zm-12 2.384c-2.209 0-4-1.791-4-4s1.791-4 4-4 4 1.791 4 4-1.791 4-4 4z"
     id="path2"
     style="fill:#333333;fill-opacity:1" />
</svg>
